<svg xmlns="http://www.w3.org/2000/svg" xml:space="preserve" width="1067" height="1067" style="fill-rule:evenodd;clip-rule:evenodd;stroke-linejoin:round;stroke-miterlimit:2" id="gmail">
  <g>
    <path d="M1000.02,171.48c-0,-27.627 -10.975,-54.122 -30.51,-73.657c-19.535,-19.535 -46.03,-30.509 -73.657,-30.509l-725,-0c-27.627,-0 -54.122,10.974 -73.657,30.509c-19.535,19.535 -30.51,46.03 -30.51,73.657l0,725c0,27.627 10.975,54.122 30.51,73.657c19.535,19.535 46.03,30.51 73.657,30.51l725,-0c27.627,-0 54.122,-10.975 73.657,-30.51c19.535,-19.535 30.51,-46.03 30.51,-73.657l-0,-725Z" style="fill:#fff"></path>
    <g>
      <path d="M200.017,359.054c-0,-19.262 7.652,-37.735 21.272,-51.355c13.62,-13.62 32.093,-21.272 51.354,-21.272c0.002,0 0.003,0 0.004,0c10.534,0 20.783,3.429 29.196,9.769c-0,-0 157.534,118.711 212.7,160.281c11.135,8.39 26.48,8.39 37.614,0l212.7,-160.281c8.414,-6.34 18.662,-9.769 29.197,-9.769c0.001,0 0.002,0 0.003,0c19.262,0 37.734,7.652 51.355,21.272c13.62,13.62 21.271,32.093 21.271,51.355c0,28.547 0,380.771 0,380.771c0,23.731 -19.237,42.969 -42.969,42.969l-94.783,0c-2.763,0 -5.412,-1.097 -7.366,-3.051c-1.953,-1.953 -3.051,-4.603 -3.051,-7.365c0,-48.176 0,-247.043 0,-247.043c0,-0 -119.26,89.869 -166.357,125.359c-11.134,8.39 -26.479,8.39 -37.614,-0c-47.097,-35.49 -166.357,-125.359 -166.357,-125.359l0,247.043c0,2.762 -1.097,5.412 -3.051,7.365c-1.953,1.954 -4.603,3.051 -7.366,3.051c-19.395,0 -62.043,0 -94.783,0c-23.731,0 -42.969,-19.238 -42.969,-42.969c-0,-105.472 -0,-380.771 -0,-380.771Z" style="fill:#e94335"></path>
      <path d="M348.186,331.118l171.789,129.452c7.918,5.967 18.832,5.967 26.751,-0l171.788,-129.452l0,194.217c0,-0 -129.271,97.413 -171.788,129.452c-7.919,5.967 -18.833,5.967 -26.751,-0l-171.789,-129.452l0,-194.217Z" style="fill:#e94335"></path>
      <path d="M348.186,331.118l0,444.268c0,4.091 -3.317,7.408 -7.408,7.408c-17.64,0 -63.235,0 -97.792,0c-23.731,0 -42.969,-19.238 -42.969,-42.969c-0,-105.472 -0,-380.771 -0,-380.771c-0,-19.262 7.652,-37.735 21.272,-51.355c13.62,-13.62 32.093,-21.272 51.354,-21.272c0.002,0 0.003,0 0.004,0c10.534,0 20.783,3.429 29.196,9.769l46.343,34.922Z" style="fill:#4284f7"></path>
      <path d="M718.514,331.118l0,444.268c0,4.091 3.317,7.408 7.409,7.408c17.639,0 63.234,0 97.791,0c23.732,0 42.969,-19.238 42.969,-42.969c0,-105.472 0,-380.771 0,-380.771c0,-19.262 -7.651,-37.735 -21.271,-51.355c-13.621,-13.62 -32.093,-21.272 -51.355,-21.272c-0.001,0 -0.002,0 -0.003,0c-10.535,0 -20.783,3.429 -29.197,9.769l-46.343,34.922Z" style="fill:#34a853"></path>
      <path d="M200.017,416.595l-0,-57.541c-0,-19.262 7.652,-37.735 21.272,-51.355c13.62,-13.62 32.093,-21.272 51.354,-21.272c0.002,0 0.003,0 0.004,0c10.534,0 20.783,3.429 29.196,9.769l46.343,34.922l0,194.217l-148.169,-108.74Z" style="fill:#c6221e"></path>
      <path d="M866.683,416.595l0,-57.541c0,-19.262 -7.651,-37.735 -21.271,-51.355c-13.621,-13.62 -32.093,-21.272 -51.355,-21.272c-0.001,0 -0.002,0 -0.003,0c-10.535,0 -20.783,3.429 -29.197,9.769l-46.343,34.922l0,194.217l148.169,-108.74Z" style="fill:#fcbc05"></path>
    </g>
  </g>
</svg>
